<?xml version="1.0" encoding="utf-8"?>
<!-- Generator: Adobe Illustrator 17.1.0, SVG Export Plug-In . SVG Version: 6.00 Build 0)  -->
<!DOCTYPE svg PUBLIC "-//W3C//DTD SVG 1.1//EN" "http://www.w3.org/Graphics/SVG/1.1/DTD/svg11.dtd">
<svg version="1.1" xmlns="http://www.w3.org/2000/svg" xmlns:xlink="http://www.w3.org/1999/xlink" x="0px" y="0px"
	 viewBox="0 0 1088 1094" enable-background="new 0 0 1088 1094" xml:space="preserve">
<g id="Layer_2">
	<circle stroke="#000000" stroke-miterlimit="10" cx="557.8" cy="229.9" r="72.7"/>
	<g>
		<g>
			<path d="M484.6,648.1c30.9,38.8,61.9,77.7,92.8,116.5c3.7,4.7,7.4,9.3,11.1,14c5.8,7.3,17.6,11,26.5,11c9.9,0,19.5-4,26.5-11
				c7-7,11-16.6,11-26.5c0-10.8-4.5-18.4-11-26.5c-30.9-38.8-61.9-77.7-92.8-116.5c-3.7-4.7-7.4-9.3-11.1-14
				c-5.8-7.3-17.6-11-26.5-11c-9.9,0-19.5,4-26.5,11c-7,7-11,16.6-11,26.5C473.6,632.4,478.1,640,484.6,648.1L484.6,648.1z"/>
		</g>
	</g>
	<g>
		<g>
			<path d="M577,754c0,46.6,0,93.1,0,139.7c0,0.4,0,0.9,0,1.3c0,20.4,17.1,37.5,37.5,37.5S652,915.4,652,895c0-46.6,0-93.1,0-139.7
				c0-0.4,0-0.9,0-1.3c0-20.4-17.1-37.5-37.5-37.5S577,733.6,577,754L577,754z"/>
		</g>
	</g>
	<g>
		<g>
			<path d="M544.1,431c31.2,20,62.4,40,93.5,60c17.2,11,41.3,3.6,51.3-13.5c10.7-18.2,3.7-40.3-13.5-51.3c-31.2-20-62.4-40-93.5-60
				c-17.2-11-41.3-3.6-51.3,13.5C520,397.9,526.9,420,544.1,431L544.1,431z"/>
		</g>
	</g>
	<g>
		<g>
			<path d="M658,496c41.1,0,82.3,0,123.4,0c20.4,0,37.5-17.1,37.5-37.5S801.8,421,781.4,421c-41.1,0-82.3,0-123.4,0
				c-20.4,0-37.5,17.1-37.5,37.5S637.6,496,658,496L658,496z"/>
		</g>
	</g>
	<g>
		<g>
			<path d="M434.4,585.1c-11.7,38.9-23.4,77.8-35.1,116.7c-16.6,55.1-33.2,110.2-49.7,165.2c-1.8,6-3.6,12-5.4,18
				c-5.9,19.6,6.8,40.8,26.2,46.1c20.1,5.5,40.2-6.6,46.1-26.2c11.7-38.9,23.4-77.8,35.1-116.7c16.6-55.1,33.2-110.2,49.7-165.2
				c1.8-6,3.6-12,5.4-18c5.9-19.6-6.8-40.8-26.2-46.1C460.5,553.4,440.3,565.5,434.4,585.1L434.4,585.1z"/>
		</g>
	</g>
	<g>
		<path d="M444,553.5h-46h-7.4c-5.4,0-10.9-1.1-15.8-3.4c-3.9-1.9-7.3-4.5-9.5-8.4c-0.5-0.9-1-1.9-1.5-2.9
			c-5-10.7-6.1-22.8-3.6-34.3c0,0,35.9-153,36.6-154c6.1-8.1,12.9-10.5,22.8-14.6c1.6-0.6,36.9-5,38.6-5.2l46-5.5h91.6
			c8.1,0.4,8-0.1,15.9,1.6c2.4,0.5,1.3,0.4,5.1,3.1c1.6,1.1,3.9,4.9,3.6,8.7c-0.5,5.3-0.8,6.1-0.8,6.1L570,621.6l-3.5,11.9l-8.5,7
			h-13l-112-14l0,0c-4.8-2.5-6.2-8-5.2-13.3l0,0C429.6,606.8,444,553.5,444,553.5z"/>
		<g>
			<path d="M444,552c-12.5,0-25,0-37.5,0c-4.1,0-8.2,0-12.2,0c-5.4,0-10.5-0.3-15.7-2c-8.9-2.9-13.1-9.7-15.8-18.2
				c-4.1-12.4-1.7-24.4,1.2-36.6c2.9-12.2,5.7-24.4,8.6-36.6c7-29.9,14-59.8,21.2-89.6c1.1-4.4,2.1-8.8,3.2-13.1
				c0.7-2.8,1-4.5,2.8-6.7c11.4-13.4,31.1-13.6,47.1-15.7c10.4-1.3,19.7-2.4,30.4-3.7c9.4-1.1,19.1-3.2,28.6-3.2
				c26.9,0,53.8,0,80.8,0c12.1,0,33.8-2.8,32,14.8c-0.4,3.7-1.3,7.5-1.9,11.2c-4,22.1-7.9,44.2-11.9,66.3
				c-10.6,59.1-21.1,118.2-31.7,177.3c-1.3,7.1-2.5,14.3-3.8,21.4c-0.2,1.2-0.4,2.3-0.6,3.5c-0.3,1.9-1.1,3.7-1.6,5.5
				c-0.5,1.7-1,3.4-1.5,5.1c-0.5,1.8,0.3,0.4-1.2,1.7c-2.4,2-4.8,4-7.2,5.9c0.7-0.6,1.2-0.4,0.2-0.4c-0.7,0-1.3,0-2,0
				c-2.2,0-4.4,0-6.5,0c-2.5,0-4.7-0.1-7.2-0.4c-12-1.5-23.9-3-35.9-4.5c-24-3-48-6-72-9c-0.2,0-0.4,0-0.5-0.1
				c0.2,0.1,0.5,0.1,0.7,0.2c-1.5-0.7-2.6-1.8-3.4-3.2c-1.1-1.7-1.3-3.9-1.4-5.9c-0.1-2.4,0.9-4.9,1.6-7.3
				c1.9-6.9,3.8-13.9,5.7-20.8c3.1-11.4,6.2-22.7,9.3-34.1c0.5-1.9-2.4-2.7-2.9-0.8c-3.3,12-6.5,24.1-9.8,36.1
				c-1.9,6.8-3.7,13.7-5.6,20.5c-1.8,6.5-1.8,14.5,5.1,18.1c1.7,0.9,4.5,0.7,6.4,0.9c5.4,0.7,10.8,1.3,16.1,2
				c15.7,2,31.3,3.9,47,5.9c12.7,1.6,25.4,3.2,38.1,4.8c2,0.2,4,0.6,5.9,0.6c5.1,0,11,1.4,15-1.9c2.2-1.8,4.5-3.7,6.7-5.5
				c1.6-1.3,2-6.2,2.6-8c0.6-2,1.2-3.9,1.6-5.9c1-5.8,2.1-11.6,3.1-17.4c10.3-57.8,20.7-115.7,31-173.5c4.3-23.9,8.6-47.8,12.8-71.7
				c0.8-4.3,1.5-8.5,2.3-12.8c1-5.8,1.7-12.1-3.2-16.4c-5.9-5.3-14.6-5.2-22.2-5.2c-25.4,0-50.7,0-76.1,0c-6.8,0-13.5-0.2-20.2,0.6
				c-13.4,1.6-26.8,3.2-40.2,4.8c-11.5,1.4-23.7,2.9-35.4,4.6c-7.4,1.1-14.8,4.5-21,8.8c-3.4,2.4-6.9,5.4-8,9.6
				c-6.2,24-11.6,48.3-17.3,72.5c-6,25.4-12,50.8-17.9,76.1c-3.5,14.9-3.4,33.4,7.2,45.6c9.7,11.1,27.2,8.8,40.5,8.8
				c12.2,0,24.4,0,36.6,0C445.9,555,445.9,552,444,552z"/>
		</g>
	</g>
	<g>
		<g>
			<path d="M777.2,323.1c-2.2,25.4-4.4,50.9-6.7,76.3c-5.1,58.3-10.2,116.6-15.3,174.9c-5.6,64.2-11.2,128.3-16.8,192.5
				c-3.8,43-7.5,86.1-11.3,129.1c-0.5,5.3-0.9,10.6-1.4,15.9c-0.7,8.2,7.4,15,15,15c8.7,0,14.3-6.9,15-15
				c2.2-25.4,4.4-50.9,6.7-76.3c5.1-58.3,10.2-116.6,15.3-174.9c5.6-64.2,11.2-128.3,16.8-192.5c3.8-43,7.5-86.1,11.3-129.1
				c0.5-5.3,0.9-10.6,1.4-15.9c0.7-8.2-7.4-15-15-15C783.5,308.1,777.9,315,777.2,323.1L777.2,323.1z"/>
		</g>
	</g>
	<path fill="none" stroke="#000000" stroke-width="32" stroke-miterlimit="10" d="M1072,986.1c0,51.3-41.6,93-93,93H111.1
		c-51.4,0-93-41.6-93-93V107c0-51.3,41.6-93,93-93H979c51.4,0,93,41.6,93,93V986.1z"/>
</g>
<g id="Layer_3" display="none">
	
		<image display="inline" overflow="visible" width="183" height="185" xlink:href="trek_logo.png"  transform="matrix(5.9217 0 0 5.9217 4.8908 17.0436)">
	</image>
</g>
</svg>
